# xmcd CD database file
#
# Track frame offsets:
#	150
#	24988
#	43084
#	74807
#	92186
#	117622
#	143098
#	162771
#	183527
#	217714
#	232741
#	252383
#	267174
#	287836
#	327158
#
# Disc length: 4691 seconds
#
# Revision: 0
# Processed by: cddbd v1.5.2PL0 Copyright (c) Steve Scherf et al.
# Submitted via: CDex 1.51
#
DISCID=db12510f
DTITLE=Spirris of... Jazz - Spirris of... Jazz - CD2 ...to the fruits
DYEAR=1900
DGENRE=Jazz
TTITLE0=André Ceccarelli Feat. Stephy Haik - Walk on the wild side
TTITLE1=Mirian Aïda, Frederick Kronkvist and Monday Nigth Big Band - Señor Blues
TTITLE2=Michel Petrucciani, Steve Gadd and Anthony Jackson - So what (Live in Tokyo)
TTITLE3=Sylvain Luc and Bireli La grene - Isn't she lovely
TTITLE4=Charlie Hunter Feat. Mos Def - Creole
TTITLE5=Elisabeth Kontomanou - Sunny
TTITLE6=Re. Jazz - Push push
TTITLE7=Erik Truffaz - Yuri's choice
TTITLE8=Stéphane Belmonde - Too high
TTITLE9=Jamie Cullum - Devil may care
TTITLE10=Marco Di Marco Feat. Nathan Haines - Take off
TTITLE11=Eli Goulart and Banda Do Mato - Meu samba (Nicola Conte's Bossa Ahead Remix)
TTITLE12=United Future Organisation Feat. Dee Dee Bridgewater - Flying saucer
TTITLE13=Goran Kajfes - Mesquairo
TTITLE14=The Bad Plus - Smells like teen spirit
EXTD=
EXTT0=
EXTT1=
EXTT2=
EXTT3=
EXTT4=
EXTT5=
EXTT6=
EXTT7=
EXTT8=
EXTT9=
EXTT10=
EXTT11=
EXTT12=
EXTT13=
EXTT14=
PLAYORDER=
